<svg width="393" height="79" viewBox="0 0 393 79" fill="none" xmlns="http://www.w3.org/2000/svg">
<mask id="mask0_24444_1331" style="mask-type:luminance" maskUnits="userSpaceOnUse" x="39" y="38" width="122" height="44">
<path d="M39.4023 38.6892H160.717V82H39.4023V38.6892Z" fill="white"/>
</mask>
<g mask="url(#mask0_24444_1331)">
<path d="M132.378 49.3429C127.329 42.8898 119.484 39.087 111.036 39.087C102.611 39.087 94.76 42.8898 89.6935 49.3195C75.8982 49.5652 64.4196 59.1131 62.7639 71.3113C53.8713 71.9022 44.8674 67.5436 44.7797 67.5085C43.5979 66.9117 42.1587 67.1809 41.2285 68.1637C40.3275 69.1408 40.1461 70.6034 40.8248 71.7735C42.656 75.0204 44.768 78.2674 47.6581 81.0289H59.2888C58.8383 80.8767 58.3937 80.7188 57.949 80.5374C55.3456 79.4843 53.257 78.051 51.4667 76.2549C55.7376 77.2963 61.003 77.9691 66.1221 77.0681C67.5613 76.8165 68.6378 75.5645 68.6378 74.0902C68.784 63.811 78.4841 55.4332 90.2318 55.4332C91.1327 55.597 93.0868 55.0353 93.6835 54.187C97.5273 48.5589 104.027 45.2007 111.036 45.2007C118.045 45.2007 124.51 48.5355 128.394 54.1461C128.932 54.9651 129.863 55.4449 130.869 55.4449C130.869 55.4449 130.904 55.4449 130.927 55.4449C143.336 55.4449 153.259 63.9222 153.259 74.3242C153.259 76.6878 152.726 78.9402 151.796 81.0289H158.296C158.957 78.8934 159.331 76.6469 159.331 74.3242C159.331 60.9209 147.367 49.9338 132.378 49.3429Z" fill="white"/>
</g>
<mask id="mask1_24444_1331" style="mask-type:luminance" maskUnits="userSpaceOnUse" x="42" y="41" width="116" height="41">
<path d="M42.4004 41.6844H157.724V81.9998H42.4004V41.6844Z" fill="white"/>
</mask>
<g mask="url(#mask1_24444_1331)">
<path d="M131.108 52.3733C131.032 52.3733 130.945 52.4025 130.868 52.4025C126.615 46.2245 119.337 42.135 111.035 42.135C102.716 42.135 95.4031 46.2537 91.1849 52.4435C90.8807 52.4376 90.5589 52.3733 90.2313 52.3733C76.7577 52.3733 65.7823 62.0616 65.6185 74.055C54.9473 75.9096 43.4512 70.2698 43.4512 70.2698C45.9903 74.7512 48.6347 78.4019 52.4433 81.0287H155.113C155.885 78.9167 156.318 76.6585 156.318 74.3241C156.312 62.1962 145.032 52.3733 131.108 52.3733Z" fill="white"/>
</g>
<path d="M134.128 52.5955C134.181 52.5955 134.216 52.5955 134.234 52.5955C134.754 52.5955 135.222 52.1859 135.257 51.6419C135.334 51.0744 134.901 50.5595 134.321 50.4952C128.36 49.9628 121.211 53.1045 119.953 59.1421C118.946 64.0506 121.86 68.9007 126.441 69.9771C126.962 70.1 127.5 70.1644 128.02 70.1644C129.296 70.1644 130.554 69.8016 131.671 69.082C133.321 68.0172 134.473 66.3265 134.901 64.3081C135.585 60.9909 133.59 57.6678 130.443 56.9248C129.202 56.6089 127.933 56.8488 126.868 57.5333C125.715 58.2529 124.873 59.4697 124.586 60.8329C124.463 61.4004 124.838 61.9679 125.376 62.0849C125.955 62.1551 126.493 61.8392 126.616 61.2892C126.815 60.4526 127.283 59.733 127.962 59.3059C128.6 58.9081 129.313 58.7969 129.98 58.9549C132.028 59.4522 133.321 61.6578 132.853 63.8751C132.56 65.3377 131.735 66.5605 130.554 67.321C129.46 68.0114 128.184 68.2162 126.926 67.9353C123.404 67.1163 121.211 63.372 121.983 59.5692C122.972 54.8186 129.074 52.0338 134.128 52.5955Z" fill="white"/>
<mask id="mask2_24444_1331" style="mask-type:luminance" maskUnits="userSpaceOnUse" x="90" y="64" width="26" height="18">
<path d="M90.3281 64.1501H115.789V81.9998H90.3281V64.1501Z" fill="white"/>
</mask>
<g mask="url(#mask2_24444_1331)">
<path d="M114.613 74.2539C112.694 67.6721 107.499 64.6591 99.8638 65.9053C96.8099 66.3967 93.9841 68.2513 92.3167 70.8899C90.8658 73.2183 90.4505 75.9037 91.1876 78.4369C91.4567 79.3613 91.8721 80.233 92.3811 81.0287H95.1952C94.3527 80.1336 93.6858 79.0337 93.323 77.7992C92.7848 75.9037 93.089 73.8736 94.2181 72.1068C95.5345 69.9947 97.7752 68.5204 100.221 68.1343C104.696 67.4089 110.459 68.0056 112.454 74.8974C113.016 76.8281 112.904 78.9284 112.314 81.0287H114.63C115.198 78.7353 115.245 76.4185 114.613 74.2539Z" fill="white"/>
</g>
<mask id="mask3_24444_1331" style="mask-type:luminance" maskUnits="userSpaceOnUse" x="102" y="73" width="7" height="9">
<path d="M102.307 73.1364H108.297V81.9998H102.307V73.1364Z" fill="white"/>
</mask>
<g mask="url(#mask3_24444_1331)">
<path d="M107.053 77.1965C106.907 76.8747 106.152 75.1255 104.572 74.1601C104.034 73.8208 103.344 73.9788 103.045 74.5287C102.7 75.0553 102.882 75.7456 103.42 76.0732C104.368 76.6758 104.929 77.9571 104.947 77.9746C105.228 78.9868 105.157 80.0749 104.742 81.0286H107.123C107.445 79.8175 107.427 78.4953 107.053 77.1965Z" fill="white"/>
</g>
<mask id="mask4_24444_1331" style="mask-type:luminance" maskUnits="userSpaceOnUse" x="-28" y="0" width="30" height="53">
<path d="M-27.9961 0H1.95817V52.1684H-27.9961V0Z" fill="white"/>
</mask>
<g mask="url(#mask4_24444_1331)">
<path d="M1.65979 25.5372C1.65979 12.4965 -11.3048 1.72 -28.002 0.140381V6.336C-14.9321 7.84541 -5.09162 15.8781 -5.09162 25.5372C-5.09162 35.2723 -15.0432 43.3517 -28.002 44.8202V50.9749C-11.2989 49.3894 1.65979 38.5895 1.65979 25.5372Z" fill="white"/>
</g>
<mask id="mask5_24444_1331" style="mask-type:luminance" maskUnits="userSpaceOnUse" x="-28" y="16" width="117" height="66">
<path d="M-27.9961 16.2235H88.8255V82H-27.9961V16.2235Z" fill="white"/>
</mask>
<g mask="url(#mask5_24444_1331)">
<path d="M72.0874 61.5995C68.9925 52.8531 61.7555 46.6633 53.2548 45.8326C51.6401 31.6686 40.7173 19.7747 26.7348 17.5164C14.6302 15.5565 2.70117 21.2081 -3.55296 31.7155C-11.4218 30.9198 -18.4657 34.939 -23.2572 42.8956C-24.8954 43.0302 -26.4808 43.2525 -28.002 43.5509V50.1794C-25.9133 49.6822 -23.6609 49.3545 -21.2622 49.2609C-20.256 49.2024 -19.3257 48.594 -18.8226 47.6521C-17.0441 44.3524 -11.9893 36.858 -3.22533 38.2679C-1.93238 38.6014 0.0860176 38.0515 0.688614 36.8346C5.43332 27.4446 15.5663 22.2319 25.9333 23.911C38.0203 25.8709 47.223 36.6942 47.4044 49.0913C47.4044 49.9922 47.7613 50.8581 48.4107 51.4665C49.0542 52.0984 49.9201 52.3851 50.7274 52.3207C51.8566 52.2154 52.8278 52.2447 53.758 52.3968C60.0121 53.4089 65.1839 58.5924 66.9156 65.6305C67.2725 67.0346 68.4952 68.0935 69.8233 68.076C69.9637 68.076 70.7711 68.0291 70.9349 68.0291C76.4694 68.8131 81.9278 74.921 81.3545 79.5428C81.2843 80.0694 81.1731 80.5666 81.0386 81.0347H87.2868C87.3161 80.8592 87.3512 80.6954 87.3746 80.5198C88.416 72.3877 80.8514 63.0329 72.0874 61.5995Z" fill="white"/>
</g>
<mask id="mask6_24444_1331" style="mask-type:luminance" maskUnits="userSpaceOnUse" x="-28" y="19" width="114" height="63">
<path d="M-27.9961 19.2188H85.8301V81.9998H-27.9961V19.2188Z" fill="white"/>
</mask>
<g mask="url(#mask6_24444_1331)">
<path d="M71.6194 64.7995C71.0109 64.7001 70.4493 64.858 69.8584 64.8405C67.7405 56.2813 61.4513 50.3606 54.1558 49.1905C52.898 48.9916 51.6635 48.9858 50.4174 49.0852C50.2419 35.2314 40.2142 22.9513 26.3487 20.7164C14.3084 18.7683 3.20431 24.9931 -1.97334 35.2665C-2.25416 35.2138 -2.54668 35.0968 -2.83335 35.0559C-11.2404 33.6927 -17.7052 38.9581 -21.4436 46.0196C-23.737 46.1191 -25.9367 46.3999 -28.002 46.8504V81.0228H84.1627C84.2329 80.6952 84.2914 80.3617 84.3324 80.0165C85.1632 73.4933 78.6575 65.9345 71.6194 64.7995Z" fill="white"/>
</g>
<path d="M8.98622 33.868C6.92101 34.2015 5.10738 35.3716 4.01334 37.0565C3.06557 38.5308 2.73795 40.2918 3.06557 41.9943C3.20598 42.6378 3.77933 43.059 4.37607 42.9186C4.98452 42.7958 5.3648 42.1873 5.21854 41.5438C5.00207 40.4673 5.21854 39.344 5.82698 38.3962C6.58169 37.232 7.87464 36.4246 9.34895 36.1906C12.8534 35.6641 16.2817 37.8346 16.9311 41.0757C17.2529 42.708 16.9136 44.4573 15.9248 45.996C14.6143 48.0261 12.4029 49.4536 9.99835 49.8397C4.7154 50.6412 -1.2111 46.5342 -2.27003 41.3858C-2.75562 38.9052 -1.62648 35.2312 0.760498 31.5278C3.89048 26.7071 8.31342 23.1266 11.7944 22.5708C12.4029 22.4713 12.8007 21.8804 12.6954 21.2544C12.6076 20.6226 12.046 20.1663 11.4551 20.2599C7.33639 20.9151 2.43372 24.7881 -1.03559 30.1764C-3.8204 34.4472 -5.04314 38.6888 -4.41129 41.8305C-3.36991 47.0607 1.51521 51.2848 6.76305 52.1331C7.95069 52.3203 9.15588 52.3378 10.3377 52.1565C13.3389 51.6767 16.1062 49.869 17.7209 47.3299C19.0899 45.2471 19.558 42.8718 19.0899 40.6136C18.2065 36.1731 13.6958 33.1425 8.98622 33.868Z" fill="white"/>
<mask id="mask7_24444_1331" style="mask-type:luminance" maskUnits="userSpaceOnUse" x="-17" y="61" width="22" height="21">
<path d="M-16.0117 61.1549H4.95627V82H-16.0117V61.1549Z" fill="white"/>
</mask>
<g mask="url(#mask7_24444_1331)">
<path d="M3.24241 67.409C1.62769 63.9105 -1.71291 61.5996 -5.66781 61.3187C-9.4706 61.0847 -12.8873 62.875 -14.7594 66.1337C-15.83 67.9765 -16.1401 70.2992 -15.5843 72.417C-15.011 74.4588 -13.7531 76.1028 -11.957 77.0915C-10.1258 78.0744 -8.00799 78.2792 -6.17095 77.6239C-4.59133 77.0213 -3.36859 75.8103 -2.68409 74.219C-2.41497 73.6281 -2.68409 72.9377 -3.22233 72.6686C-3.87173 72.3936 -4.44507 72.6686 -4.69664 73.2361C-5.11202 74.2541 -5.91938 75.0439 -6.93151 75.4066C-8.20105 75.8746 -9.67537 75.7401 -10.9859 74.9971C-12.1911 74.336 -13.0686 73.2127 -13.4313 71.8086C-13.8584 70.3167 -13.6478 68.6961 -12.8931 67.3973C-11.4539 64.8641 -8.75685 63.4776 -5.76142 63.6706C-2.57878 63.8403 0.00711536 65.6773 1.26496 68.4095C2.23614 70.5039 2.4526 73.5462 1.84415 76.5182C1.46973 78.2792 0.521954 79.7769 -0.759293 81.0347H2.20688C3.0435 79.8588 3.66364 78.5366 3.97957 77.0623C4.71672 73.5579 4.43005 69.9481 3.24241 67.409Z" fill="white"/>
</g>
<path d="M51.2442 57.7324C49.179 57.0947 47.1314 57.3346 45.4582 58.3584C44.0248 59.2593 43.0185 60.6986 42.6558 62.4069C42.5154 63.0329 42.8723 63.6647 43.4866 63.8227C44.1535 63.9865 44.6742 63.5828 44.7795 62.9627C45.0311 61.8803 45.6746 60.9501 46.5931 60.3768C47.7398 59.6747 49.2317 59.5285 50.6709 59.9614C54.0876 61.0613 56.3868 64.5657 55.6672 67.7776C55.3454 69.404 54.2982 70.7906 52.7888 71.75C50.7821 72.9903 48.1552 73.3121 45.8618 72.5516C40.7193 70.9251 36.9107 64.5481 38.0047 59.4466C38.5956 56.7086 41.0235 53.7833 44.5104 51.6128C48.4068 49.1966 52.7888 48.2839 55.9187 49.3194C56.5272 49.5008 57.1005 49.1556 57.2819 48.5413C57.4633 47.9095 57.1005 47.2659 56.5096 47.0787C52.7595 45.9203 47.8334 46.8272 43.3988 49.5886C39.3854 52.0633 36.5889 55.5502 35.8634 58.8966C34.5003 65.2385 38.9583 72.809 45.2417 74.7923C45.7448 74.9385 46.248 75.0672 46.7511 75.155C49.2317 75.547 51.8176 75.0672 53.9179 73.7801C55.9538 72.5106 57.3521 70.5858 57.8377 68.3451C58.7796 63.9221 55.8251 59.1891 51.2442 57.7324Z" fill="white"/>
<mask id="mask8_24444_1331" style="mask-type:luminance" maskUnits="userSpaceOnUse" x="234" y="38" width="120" height="44">
<path d="M234.105 38.6892H353.923V82H234.105V38.6892Z" fill="white"/>
</mask>
<g mask="url(#mask8_24444_1331)">
<path d="M352.964 71.7793C353.648 70.6092 353.467 69.1466 352.572 68.1696C351.636 67.1867 350.196 66.9118 349.015 67.5143C348.944 67.5494 339.923 71.908 331.048 71.3171C329.398 59.1131 317.896 49.5652 304.101 49.3195C299.028 42.8898 291.2 39.0929 282.758 39.0929C274.31 39.0929 266.482 42.8898 261.41 49.3487C246.433 49.9338 234.469 60.9209 234.469 74.3243C234.469 76.6469 234.831 78.8935 235.504 81.0289H241.998C241.074 78.9403 240.542 76.6878 240.542 74.3243C240.542 63.9222 250.458 55.4449 262.884 55.4449H262.925C263.932 55.4449 264.868 54.9651 265.406 54.1461C269.285 48.5414 275.749 45.2008 282.758 45.2008C289.761 45.2008 296.261 48.5589 300.105 54.187C300.719 55.0354 302.667 55.597 303.562 55.4332C315.316 55.4332 325.01 63.811 325.156 74.0902C325.156 75.5646 326.233 76.8166 327.666 77.0681C332.809 77.9691 338.051 77.2963 342.333 76.2549C340.537 78.051 338.449 79.4844 335.863 80.5374C335.424 80.7188 334.979 80.8768 334.529 81.0289H346.136C349.026 78.2675 351.138 75.0205 352.964 71.7793Z" fill="white"/>
</g>
<mask id="mask9_24444_1331" style="mask-type:luminance" maskUnits="userSpaceOnUse" x="237" y="41" width="114" height="41">
<path d="M237.104 41.6844H350.93V81.9998H237.104V41.6844Z" fill="white"/>
</mask>
<g mask="url(#mask9_24444_1331)">
<path d="M350.349 70.2698C350.349 70.2698 338.847 75.9096 328.176 74.055C328.03 62.0616 317.037 52.3733 303.563 52.3733C303.241 52.3733 302.908 52.4376 302.627 52.4435C298.386 46.2537 291.102 42.135 282.759 42.135C274.457 42.135 267.197 46.2245 262.926 52.4025C262.85 52.4025 262.774 52.3733 262.71 52.3733C248.768 52.3733 237.482 62.1962 237.482 74.3183C237.482 76.6585 237.904 78.9109 238.688 81.0287H341.363C345.166 78.396 347.804 74.7512 350.349 70.2698Z" fill="white"/>
</g>
<path d="M259.473 50.4953C258.894 50.5538 258.467 51.0745 258.537 51.642C258.578 52.186 259.04 52.5897 259.578 52.5897C259.578 52.5897 259.619 52.5897 259.689 52.5897C264.715 52.0339 270.823 54.8187 271.835 59.5635C272.584 63.3662 270.396 67.1105 266.874 67.9296C265.616 68.2104 264.358 68.0056 263.246 67.3153C262.059 66.5606 261.234 65.332 260.941 63.8694C260.479 61.6521 261.772 59.4464 263.82 58.9492C264.498 58.7912 265.218 58.9024 265.832 59.3002C266.517 59.7273 266.979 60.4527 267.196 61.2835C267.307 61.8334 267.845 62.1493 268.418 62.0791C268.956 61.9621 269.348 61.3946 269.208 60.8271C268.921 59.464 268.091 58.2471 266.944 57.5275C265.862 56.843 264.61 56.6031 263.346 56.9191C260.222 57.6621 258.209 60.9851 258.894 64.3023C259.327 66.3207 260.479 68.0115 262.135 69.0763C263.246 69.79 264.498 70.1586 265.797 70.1586C266.3 70.1586 266.839 70.0942 267.383 69.9772C271.934 68.9008 274.848 64.0449 273.842 59.1364C272.584 53.0987 265.435 49.957 259.473 50.4953Z" fill="white"/>
<mask id="mask10_24444_1331" style="mask-type:luminance" maskUnits="userSpaceOnUse" x="277" y="64" width="26" height="18">
<path d="M277.539 64.1501H303V81.9998H277.539V64.1501Z" fill="white"/>
</mask>
<g mask="url(#mask10_24444_1331)">
<path d="M301.48 70.8899C299.824 68.2514 296.987 66.3968 293.933 65.9053C286.31 64.6592 281.109 67.678 279.196 74.2539C278.564 76.4186 278.611 78.7353 279.172 81.0287H281.483C280.892 78.9284 280.787 76.8281 281.354 74.8975C283.332 68.0056 289.112 67.4089 293.57 68.1343C296.016 68.5205 298.28 69.9948 299.567 72.1068C300.719 73.8795 301.012 75.9037 300.474 77.7993C300.105 79.0337 299.444 80.1336 298.596 81.0287H301.421C301.936 80.2331 302.346 79.3613 302.627 78.437C303.34 75.9037 302.948 73.2184 301.48 70.8899Z" fill="white"/>
</g>
<mask id="mask11_24444_1331" style="mask-type:luminance" maskUnits="userSpaceOnUse" x="285" y="73" width="7" height="9">
<path d="M285.027 73.1364H291.018V81.9998H285.027V73.1364Z" fill="white"/>
</mask>
<g mask="url(#mask11_24444_1331)">
<path d="M288.864 77.9687C288.864 77.957 289.438 76.6758 290.374 76.0732C290.906 75.7456 291.093 75.0494 290.766 74.5228C290.45 73.9729 289.76 73.8208 289.221 74.1542C287.642 75.1254 286.887 76.8747 286.741 77.1965C286.36 78.4894 286.349 79.8175 286.67 81.0285H289.046C288.63 80.069 288.56 78.9867 288.864 77.9687Z" fill="white"/>
</g>
<mask id="mask12_24444_1331" style="mask-type:luminance" maskUnits="userSpaceOnUse" x="142" y="35" width="108" height="47">
<path d="M142.746 35.6934H249.084V81.9996H142.746V35.6934Z" fill="white"/>
</mask>
<g mask="url(#mask12_24444_1331)">
<path d="M219.322 47.0959C213.858 40.4732 205.375 36.5768 196.242 36.5768C187.157 36.5768 178.638 40.4732 173.18 47.1017C156.939 47.6458 143.934 58.9021 143.934 72.6857C143.934 75.6051 144.524 78.4133 145.595 81.0284H152.341C150.849 78.4952 150.006 75.6694 150.006 72.6857C150.006 61.9501 160.923 53.2271 174.619 53.2271C175.661 53.0867 176.515 52.7708 177.1 51.9693C181.359 46.1598 188.52 42.6846 196.242 42.6846C204.023 42.6846 211.202 46.1774 215.444 52.0337C216.046 52.8644 218.041 53.2388 218.93 53.1979C232.059 53.1979 242.748 61.9443 242.748 72.6857C242.748 75.6694 241.923 78.4952 240.46 81.0284H247.182C248.241 78.4133 248.82 75.6109 248.82 72.6857C248.82 58.6798 235.633 47.2655 219.322 47.0959Z" fill="white"/>
</g>
<mask id="mask13_24444_1331" style="mask-type:luminance" maskUnits="userSpaceOnUse" x="145" y="38" width="102" height="44">
<path d="M145.74 38.6892H246.087V82H145.74V38.6892Z" fill="white"/>
</mask>
<g mask="url(#mask13_24444_1331)">
<path d="M218.929 50.1442C218.566 50.1442 218.239 50.2144 217.888 50.2203C213.283 43.855 205.321 39.631 196.247 39.631C187.226 39.631 179.292 43.814 174.659 50.1559C174.565 50.1559 174.478 50.1442 174.407 50.1442C159.237 50.1442 146.957 60.2538 146.957 72.6918C146.957 75.6405 147.647 78.4545 148.894 81.0287H243.881C245.104 78.4545 245.783 75.6405 245.783 72.6918C245.783 60.2538 233.737 50.1442 218.929 50.1442Z" fill="white"/>
</g>
<path d="M170.705 48.3303C170.097 48.3771 169.664 48.9212 169.71 49.5355C169.769 50.1439 170.29 50.5359 170.904 50.5359C171.442 50.4949 171.98 50.4657 172.536 50.4657C180.042 50.4657 188.76 54.8126 190.292 61.7805C190.918 64.5653 190.433 67.4203 188.917 69.8248C187.396 72.2235 185.039 73.8909 182.271 74.4993C180.113 74.9966 177.907 74.6163 176.064 73.4228C174.192 72.241 172.893 70.3865 172.431 68.2276C171.67 64.7525 173.829 61.3241 177.281 60.5519C178.539 60.2652 179.826 60.4817 180.937 61.1954C182.037 61.8916 182.81 62.9973 183.096 64.2727C183.231 64.8753 183.857 65.2439 184.395 65.1152C184.986 64.9806 185.36 64.3956 185.238 63.793C184.828 61.9326 183.716 60.3471 182.113 59.3291C180.516 58.3111 178.638 57.9894 176.795 58.393C174.549 58.8786 172.647 60.2359 171.425 62.1841C170.167 64.1382 169.769 66.4433 170.272 68.7015C170.886 71.4395 172.519 73.7973 174.871 75.3067C176.556 76.3832 178.48 76.9272 180.429 76.9272C181.195 76.9272 181.967 76.8453 182.739 76.6757C186.08 75.921 188.917 73.9143 190.749 71.0241C192.586 68.1106 193.194 64.6706 192.445 61.3183C190.556 52.6947 179.487 47.6107 170.705 48.3303Z" fill="white"/>
<path d="M222.552 50.5359C223.167 50.5008 223.705 50.1322 223.757 49.5355C223.804 48.9212 223.365 48.3771 222.763 48.3303C214.016 47.5815 202.895 52.6947 201.028 61.3007C200.28 64.6589 200.882 68.0873 202.725 71.0008C204.556 73.9143 207.394 75.921 210.699 76.6699C211.489 76.8454 212.285 76.9273 213.034 76.9273C214.982 76.9273 216.912 76.3832 218.597 75.3008C220.973 73.7914 222.593 71.4396 223.207 68.7015C223.711 66.4374 223.313 64.1324 222.073 62.1783C220.826 60.236 218.931 58.8787 216.69 58.3931C214.853 57.9777 212.963 58.2995 211.343 59.3233C209.763 60.3471 208.646 61.9267 208.219 63.793C208.09 64.3781 208.464 64.9748 209.067 65.1152C209.64 65.2205 210.231 64.8812 210.372 64.2786C210.658 62.9915 211.413 61.8916 212.53 61.1954C213.642 60.4875 214.97 60.2652 216.199 60.5519C217.872 60.9205 219.305 61.9267 220.218 63.3776C221.125 64.8286 221.447 66.5427 221.072 68.216C220.581 70.3865 219.288 72.2411 217.416 73.4229C215.555 74.6105 213.338 74.9966 211.208 74.4993C208.435 73.8909 206.089 72.2235 204.562 69.8131C203.047 67.4086 202.544 64.5594 203.193 61.7805C204.837 54.3095 214.812 49.7871 222.552 50.5359Z" fill="white"/>
<mask id="mask14_24444_1331" style="mask-type:luminance" maskUnits="userSpaceOnUse" x="391" y="0" width="31" height="53">
<path d="M391.365 0H421.319V52.1684H391.365V0Z" fill="white"/>
</mask>
<g mask="url(#mask14_24444_1331)">
<path d="M398.902 25.5372C398.902 16.001 408.502 8.05024 421.321 6.39457V0.181396C404.846 1.91898 392.15 12.6194 392.15 25.5372C392.15 38.4667 404.846 49.1847 421.321 50.9281V44.7559C408.59 43.147 398.902 35.1495 398.902 25.5372Z" fill="white"/>
</g>
<mask id="mask15_24444_1331" style="mask-type:luminance" maskUnits="userSpaceOnUse" x="305" y="16" width="117" height="66">
<path d="M305.996 16.2235H421.32V82H305.996V16.2235Z" fill="white"/>
</mask>
<g mask="url(#mask15_24444_1331)">
<path d="M313.228 77.3548C312.584 72.8265 317.99 66.9293 323.524 66.2389C323.665 66.2389 324.496 66.2916 324.624 66.2916C325.947 66.3208 327.163 65.3087 327.497 63.9397C329.147 57.0947 334.248 52.0926 340.502 51.1799C341.415 51.0453 342.404 51.0219 343.521 51.1331C344.334 51.2267 345.206 50.9459 345.82 50.3374C346.47 49.7582 346.809 48.9099 346.827 48.0265C346.827 35.9102 355.918 25.4497 367.959 23.6945C378.296 22.1851 388.505 27.4037 393.355 36.6474C393.97 37.8409 396 38.4084 397.293 38.0983C406.039 36.8346 411.182 44.2179 412.978 47.4707C413.516 48.4009 414.434 49.0094 415.458 49.0679C417.518 49.1849 419.489 49.454 421.326 49.8518V43.4515C420.045 43.2116 418.723 43.0068 417.366 42.8898C412.469 35.0385 405.372 31.031 397.544 31.7038C391.167 21.3602 379.168 15.6736 367.058 17.4404C353.116 19.4647 342.357 30.9549 340.894 44.7854C332.417 45.4757 325.268 51.4315 322.284 59.9439C313.555 61.231 306.073 70.2757 307.225 78.2323C307.371 79.2152 307.6 80.1513 307.886 81.0289H314.72C313.953 80.0518 313.444 78.8232 313.228 77.3548Z" fill="white"/>
</g>
<mask id="mask16_24444_1331" style="mask-type:luminance" maskUnits="userSpaceOnUse" x="308" y="19" width="114" height="63">
<path d="M308.992 19.2188H421.321V81.9998H308.992V19.2188Z" fill="white"/>
</mask>
<g mask="url(#mask16_24444_1331)">
<path d="M421.322 46.6515C419.497 46.2888 417.584 46.0314 415.601 45.9261C411.757 38.9699 405.234 33.7513 396.844 34.9741C396.551 35.0092 396.265 35.1203 395.996 35.1671C390.695 25.0634 379.521 18.8268 367.516 20.5761C353.691 22.5828 343.81 34.4592 343.769 47.9971C342.546 47.8743 341.288 47.8684 340.048 48.0439C332.793 49.0912 326.551 54.8012 324.544 63.1498C323.953 63.1498 323.398 62.986 322.783 63.0796C315.78 64.0917 309.351 71.4106 310.246 77.7934C310.415 78.9811 310.737 80.0576 311.17 81.0346H421.322V46.6515Z" fill="white"/>
</g>
<path d="M382.392 20.3184C381.801 20.219 381.246 20.6519 381.158 21.2779C381.064 21.8805 381.462 22.4714 382.076 22.5767C385.557 23.15 390.009 26.713 393.216 31.4635C395.655 35.1083 396.843 38.7239 396.375 41.1401C395.368 46.1598 389.489 50.0972 384.212 49.2372C381.801 48.8452 379.555 47.406 378.227 45.411C377.226 43.884 376.858 42.1757 377.168 40.5902C377.759 37.4251 381.169 35.3541 384.697 35.9099C386.166 36.1556 387.465 36.9688 388.213 38.1096C388.863 39.0515 389.079 40.1456 388.863 41.1928C388.752 41.8422 389.12 42.4214 389.729 42.5501C390.325 42.6964 390.91 42.2868 391.022 41.6667C391.343 39.9993 390.986 38.2734 390.027 36.8284C388.915 35.161 387.084 34.0026 385.013 33.6516C380.315 32.8793 375.816 35.7811 374.991 40.1163C374.564 42.3044 375.067 44.6387 376.454 46.6922C378.086 49.1962 380.889 50.9981 383.884 51.5071C385.089 51.7002 386.277 51.7002 387.465 51.5247C392.707 50.7641 397.527 46.6922 398.534 41.5965C399.107 38.5367 397.826 34.3829 395.006 30.1706C391.455 24.8642 386.493 21.0088 382.392 20.3184Z" fill="white"/>
<mask id="mask17_24444_1331" style="mask-type:luminance" maskUnits="userSpaceOnUse" x="389" y="59" width="22" height="23">
<path d="M389.867 59.657H410.835V81.9998H389.867V59.657Z" fill="white"/>
</mask>
<g mask="url(#mask17_24444_1331)">
<path d="M392.686 75.424C392.019 72.5105 392.2 69.5326 393.136 67.5084C394.388 64.8464 396.945 63.0854 400.127 62.9567C403.123 62.8163 405.82 64.2087 407.294 66.6952C408.06 67.9764 408.3 69.5619 407.867 71.0186C407.54 72.3759 406.68 73.4817 405.492 74.1018C404.17 74.8097 402.707 74.9267 401.432 74.447C400.391 74.0784 399.601 73.2945 399.168 72.2999C398.916 71.7382 398.319 71.4574 397.688 71.7207C397.155 71.9781 396.904 72.6685 397.155 73.236C397.857 74.8097 399.115 75.9974 400.718 76.6117C402.532 77.2786 404.65 77.1031 406.457 76.1553C408.236 75.2134 409.482 73.6396 410.038 71.6446C410.576 69.5736 410.237 67.3095 409.155 65.4958C407.253 62.2956 403.801 60.4937 399.993 60.6692C396.038 60.9032 392.732 63.1088 391.153 66.5021C390.006 68.9768 389.76 72.5047 390.538 75.9272C390.989 77.8929 392.001 79.5954 393.352 81.0287H396.74C394.739 79.5954 393.212 77.7174 392.686 75.424Z" fill="white"/>
</g>
<path d="M350.81 48.5762C346.334 45.8148 341.391 44.8729 337.658 45.9552C337.079 46.1307 336.745 46.7567 336.903 47.3769C337.079 47.9795 337.693 48.3188 338.272 48.155C341.391 47.1838 345.779 48.1374 349.728 50.542C353.232 52.7125 355.672 55.5968 356.321 58.2821C357.474 63.2842 353.753 69.474 348.634 70.9834C346.328 71.703 343.713 71.352 341.701 70.1117C340.174 69.1639 339.092 67.7891 338.77 66.1861C338.015 63.0444 340.244 59.6511 343.655 58.6156C345.1 58.2178 346.592 58.3699 347.75 59.0778C348.686 59.657 349.318 60.5696 349.587 61.6286C349.693 62.237 350.231 62.6407 350.898 62.4886C351.489 62.3365 351.845 61.7222 351.705 61.1137C351.325 59.4347 350.307 58.0188 348.868 57.1179C347.177 56.094 345.129 55.8308 343.041 56.4334C338.483 57.7965 335.61 62.3891 336.611 66.7126C337.114 68.9124 338.518 70.8196 340.583 72.0775C342.684 73.3704 345.264 73.8794 347.762 73.5108C348.271 73.4406 348.774 73.3177 349.26 73.1832C355.514 71.3227 359.896 63.9804 358.451 57.7673C357.708 54.4852 354.853 51.0451 350.81 48.5762Z" fill="white"/>
</svg>
